<svg width="0" height="0" class="hidden">
  <symbol xmlns="http://www.w3.org/2000/svg" viewBox="0 0 512 512" id="clothes-hanger">
    <path d="M485.119 345.819L271 221.738v-9.232c0-10.528 6.008-20.321 15.68-25.557 21.791-11.795 34.743-34.514 33.803-59.29-1.272-33.491-28.499-60.723-61.983-61.994-17.718-.68-34.497 5.716-47.247 17.989-12.758 12.282-19.784 28.798-19.784 46.504 0 8.284 6.716 15 15 15s15-6.716 15-15c0-9.478 3.761-18.317 10.59-24.892 6.821-6.566 15.796-9.993 25.302-9.623 17.905.68 32.463 15.243 33.144 33.154.504 13.277-6.434 25.45-18.105 31.769-19.368 10.484-31.4 30.386-31.4 51.94v9.232L26.881 345.819C10.3 355.428 0 373.304 0 392.47c0 29.729 24.182 53.914 53.906 53.914h404.188c29.724 0 53.906-24.187 53.906-53.915 0-19.166-10.3-37.041-26.881-46.65zm-27.025 70.565H53.906C40.724 416.384 30 405.655 30 392.469c0-8.502 4.568-16.431 11.923-20.692L256 247.72l214.077 124.057c7.354 4.262 11.923 12.19 11.923 20.693 0 13.186-10.724 23.914-23.906 23.914z"></path>
  </symbol>
  <symbol xmlns="http://www.w3.org/2000/svg" viewBox="-40 0 427 427.001" id="delete">
    <path d="M232.398 154.703c-5.523 0-10 4.477-10 10v189c0 5.52 4.477 10 10 10 5.524 0 10-4.48 10-10v-189c0-5.523-4.476-10-10-10zm-118 0c-5.523 0-10 4.477-10 10v189c0 5.52 4.477 10 10 10 5.524 0 10-4.48 10-10v-189c0-5.523-4.476-10-10-10zm0 0"></path>
    <path d="M28.398 127.121V373.5c0 14.563 5.34 28.238 14.668 38.05A49.246 49.246 0 0078.796 427H268a49.233 49.233 0 0035.73-15.45c9.329-9.812 14.668-23.487 14.668-38.05V127.121c18.543-4.922 30.559-22.836 28.079-41.863-2.485-19.024-18.692-33.254-37.88-33.258h-51.199V39.5a39.289 39.289 0 00-11.539-28.031A39.288 39.288 0 00217.797 0H129a39.288 39.288 0 00-28.063 11.469A39.289 39.289 0 0089.398 39.5V52H38.2C19.012 52.004 2.805 66.234.32 85.258c-2.48 19.027 9.535 36.941 28.078 41.863zM268 407H78.797c-17.098 0-30.399-14.688-30.399-33.5V128h250v245.5c0 18.813-13.3 33.5-30.398 33.5zM109.398 39.5a19.25 19.25 0 015.676-13.895A19.26 19.26 0 01129 20h88.797a19.26 19.26 0 0113.926 5.605 19.244 19.244 0 015.675 13.895V52h-128zM38.2 72h270.399c9.941 0 18 8.059 18 18s-8.059 18-18 18h-270.4c-9.941 0-18-8.059-18-18s8.059-18 18-18zm0 0"></path>
    <path d="M173.398 154.703c-5.523 0-10 4.477-10 10v189c0 5.52 4.477 10 10 10 5.524 0 10-4.48 10-10v-189c0-5.523-4.476-10-10-10zm0 0"></path>
  </symbol>
  <symbol xmlns="http://www.w3.org/2000/svg" viewBox="0 0 512.018 512.018" id="pencil">
    <path d="M500.361 75.493l-63.78-63.778h-.001c-15.623-15.62-41.039-15.619-56.66 0L59.288 332.339a10.01 10.01 0 00-2.378 3.799L.599 498.745a9.999 9.999 0 0012.722 12.722l162.609-56.312a10.022 10.022 0 003.799-2.378l320.632-320.624c15.479-14.836 15.48-41.823 0-56.66zm-84.856 113.229l-69.113-69.114-.01-.01-23.031-23.031 21.213-21.212 92.155 92.154zM179.413 424.808l-4.437-27.497 210.416-210.416 15.97 15.97zM309.208 110.71l15.965 15.965L114.757 337.09l-27.498-4.437zm30.108 30.107l31.935 31.935L160.27 383.733l-31.039-.897-.897-31.037zM73.06 350.621l35.396 5.711 1.056 36.516a10 10 0 009.707 9.707l36.517 1.056 5.711 35.395-79.115 27.398c-3.465-8.139-8.526-15.654-14.769-21.898-6.245-6.244-13.761-11.305-21.9-14.769zm-33.965 98.076c10.665 4.856 19.418 13.606 24.274 24.272l-37.133 12.859zm447.123-330.686l-35.357 35.356-92.155-92.154 35.356-35.355c7.823-7.824 20.555-7.821 28.376 0l63.78 63.778c7.723 7.392 7.721 20.983 0 28.375z"></path>
  </symbol>
  <symbol xmlns="http://www.w3.org/2000/svg" viewBox="0 0 64 64" id="shopping-bag">
    <path d="M43 12h-4V9a7 7 0 00-14 0v3h-4a1 1 0 00-1 1v22a3.009 3.009 0 003 3h13v-2H23a1 1 0 01-1-1v-1h14v-2H22V14h3v3h2v-3h10v3h2v-3h3v3h2v-4a1 1 0 00-1-1zm-6 0H27V9a5 5 0 0110 0z"></path>
    <path d="M57 19H39a1 1 0 00-1 1v15a3.009 3.009 0 003 3h14a3.009 3.009 0 003-3V20a1 1 0 00-1-1zm-1 16a1 1 0 01-1 1H41a1 1 0 01-1-1v-1h16zm0-3H40V21h16z"></path>
    <path d="M48 30a5.006 5.006 0 005-5v-2h-2v2a3 3 0 01-6 0v-2h-2v2a5.006 5.006 0 005 5zm14.332 14.55a4.109 4.109 0 00-5.176-2.062l-8.93 3.25a4 4 0 00-3.174-2.959l-12.063-2.127a15.018 15.018 0 00-7.735.677L23.7 41.9a16.917 16.917 0 00-4.1 2.179l-.221-.607a1 1 0 00-1.281-.6l-11.277 4.1a1 1 0 00-.6 1.281l-4.7 1.71.684 1.879 4.7-1.71 4.079 11.208 1.879-.684L8.447 48.51l9.4-3.42 5.131 14.1-2.4.875.684 1.878 3.338-1.22a1 1 0 00.6-1.282l-.342-.94 2.3-.838a10.943 10.943 0 014.523-.638l4.744.329a12.842 12.842 0 005.345-.753l18.28-6.653a4 4 0 002.281-5.4zm-1.838 2.483a1.984 1.984 0 01-1.127 1.035l-18.28 6.654a10.893 10.893 0 01-4.523.637l-4.744-.329a12.959 12.959 0 00-5.344.753l-2.306.839-3.855-10.592a14.922 14.922 0 014.07-2.256l1.552-.565a13.015 13.015 0 016.705-.587L44.7 44.749a2 2 0 11-.694 3.939l-10.833-1.91-.348 1.97 10.833 1.91a3.982 3.982 0 004.506-2.77l9.672-3.521a2.13 2.13 0 012.667 1 2.01 2.01 0 01-.009 1.666z"></path>
  </symbol>
  <symbol xmlns="http://www.w3.org/2000/svg" viewBox="0 0 512 512" id="user">
    <path d="M437.02 330.98c-27.883-27.882-61.071-48.523-97.281-61.018C378.521 243.251 404 198.548 404 148 404 66.393 337.607 0 256 0S108 66.393 108 148c0 50.548 25.479 95.251 64.262 121.962-36.21 12.495-69.398 33.136-97.281 61.018C26.629 379.333 0 443.62 0 512h40c0-119.103 96.897-216 216-216s216 96.897 216 216h40c0-68.38-26.629-132.667-74.98-181.02zM256 256c-59.551 0-108-48.448-108-108S196.449 40 256 40s108 48.448 108 108-48.449 108-108 108z"></path>
  </symbol>
  <symbol xmlns="http://www.w3.org/2000/svg" viewBox="0 0 448 448" id="add">
    <path d="M408 184H272a8 8 0 01-8-8V40c0-22.09-17.91-40-40-40s-40 17.91-40 40v136a8 8 0 01-8 8H40c-22.09 0-40 17.91-40 40s17.91 40 40 40h136a8 8 0 018 8v136c0 22.09 17.91 40 40 40s40-17.91 40-40V272a8 8 0 018-8h136c22.09 0 40-17.91 40-40s-17.91-40-40-40zm0 0"></path>
  </symbol>
  <symbol xmlns="http://www.w3.org/2000/svg" viewBox="0 0 480 480" id="add-alter">
    <path d="M424 184H296V56c0-30.928-25.072-56-56-56s-56 25.072-56 56v128H56c-30.928 0-56 25.072-56 56s25.072 56 56 56h128v128c0 30.928 25.072 56 56 56s56-25.072 56-56V296h128c30.928 0 56-25.072 56-56s-25.072-56-56-56zm0 96H288a8 8 0 00-8 8v136c0 22.091-17.909 40-40 40s-40-17.909-40-40V288a8 8 0 00-8-8H56c-22.091 0-40-17.909-40-40s17.909-40 40-40h136a8 8 0 008-8V56c0-22.091 17.909-40 40-40s40 17.909 40 40v136a8 8 0 008 8h136c22.091 0 40 17.909 40 40s-17.909 40-40 40z"></path>
  </symbol>
</svg>